<svg xmlns="http://www.w3.org/2000/svg" viewBox="0 0 300 88" role="img" aria-label="Call Indigo">
  <defs>
    <linearGradient id="ciBadgeL" x1="12" y1="4" x2="70" y2="84" gradientUnits="userSpaceOnUse">
      <stop offset="0" stop-color="#2a2564"/>
      <stop offset=".55" stop-color="#1f1c4a"/>
      <stop offset="1" stop-color="#161335"/>
    </linearGradient>
    <linearGradient id="ciSheenL" x1="16" y1="8" x2="52" y2="44" gradientUnits="userSpaceOnUse">
      <stop offset="0" stop-color="#ffffff" stop-opacity=".22"/>
      <stop offset="1" stop-color="#ffffff" stop-opacity="0"/>
    </linearGradient>
  </defs>
  <!-- Mark -->
  <circle cx="44" cy="44" r="42" fill="url(#ciBadgeL)"/>
  <circle cx="44" cy="44" r="42" fill="none" stroke="#ffffff" stroke-opacity=".14" stroke-width="1.4"/>
  <path d="M12 24a42 42 0 0 1 64 0 37 37 0 0 0-64 0z" fill="url(#ciSheenL)"/>
  <g transform="rotate(40 44 44)">
    <path d="M36.2 27.6c1.9-1.9 5-1.8 6.8.3l3.1 3.8c1.5 1.7 1.4 4.4-.3 6.1l-2.3 2.3c.5 1.5 1.5 3.1 2.9 4.6s3.1 2.4 4.6 2.9l2.3-2.3c1.7-1.7 4.4-1.8 6.1-.3l3.8 3.1c2.1 1.8 2.2 4.9.3 6.8l-2.1 2.1c-1.9 1.9-4.8 2.6-7.4 1.7-5.9-2-11.4-5.7-16-10.3S30.4 38.6 28.4 32.7c-.9-2.6-.2-5.5 1.7-7.4l2.1-2.1z"
      fill="none" stroke="#ffffff" stroke-width="4.2" stroke-linecap="round" stroke-linejoin="round"/>
  </g>
  <!-- Wordmark -->
  <text x="100" y="59" font-family="Archivo, 'Segoe UI', 'Helvetica Neue', Arial, sans-serif" font-weight="700" font-size="38" letter-spacing="-1" fill="#1f1c4a">Call Indigo</text>
</svg>
